<svg width="1200" height="800" xmlns="http://www.w3.org/2000/svg">
<style>
  .node { fill: #ffffff; stroke: #000000; stroke-width: 2; }
  .label { font: 10px Arial; fill: #333333; }
  .labela { font: 6px Arial; fill: #333333; font-weight: bold;}
  .error { font: 9px Arial; fill: #cc0000; }
  .timestamp { font: 20px Arial; font-weight: bold; fill: #0000cc; }
  .section-label { font: 15px Arial; font-weight: bold; fill: #0000cc; }
  .box-index { font: 12px Arial; font-weight: bold; fill: #000000; }
  .connection-line { stroke: #888888; stroke-width: 2; }
  .diagonal-line { stroke: #aa0000; stroke-width: 3; }
  .sender-receiver-line { stroke: #00aa00; stroke-width: 2; stroke-dasharray: 5,5; }</style>
<defs>
  <marker id="arrowhead" markerWidth="10" markerHeight="7" refX="9" refY="3.5" orient="auto">
    <polygon points="0 0, 10 3.5, 0 7" fill="#888888"/>
  </marker>
</defs>
<text class="timestamp" x="50" y="40">Timestamp: 2025-03-27 16:49:24</text>
<text class="error" x="50" y="50">Description: Aggregation FSM state changed from Secondary Mute to Secondary Protect due to Local Traffic Port Down (AGGR_FSM_RSN_LCL_TP_DOWN) in 72 ms</text>
<rect class="node" x="50" y="80" width="500" height="300" rx="5" ry="5" data-entry="0" data-section="0"><title>Entry 0 - Box 0 (local)</title></rect>
<text class="section-label" x="60" y="110">LOCAL</text>
<text class="box-index" x="520" y="110">[0]</text>
<text class="labela" x="60" y="140">device active. Dati tike saņemt un parsutiti tikai caur sekundaro</text>
<text class="label" x="60" y="170">Role: secondary_protect</text>
<text class="label" x="60" y="200">Config: secondary</text>
<text class="label" x="60" y="230">TX: traffic_port</text>
<text class="label" x="60" y="260">RX: radio_port-traffic_port</text>
<text class="label" x="60" y="290">Eth IP: 192.168.205.12</text>
<rect x="60" y="320" width="90" height="20" fill="#ff7070" stroke="black" stroke-width="0.5"/>
<text class="label" x="65" y="335">LAN1</text>
<rect x="160" y="320" width="90" height="20" fill="#ff7070" stroke="black" stroke-width="0.5"/>
<text class="label" x="165" y="335">LAN2</text>
<rect x="260" y="320" width="90" height="20" fill="purple" stroke="black" stroke-width="0.5"/>
<text class="label" x="265" y="335">LAN3</text>
<rect x="360" y="320" width="90" height="20" fill="#70ff70" stroke="black" stroke-width="0.5"/>
<text class="label" x="365" y="335">WAN</text>
<rect class="node" x="600" y="80" width="500" height="300" rx="5" ry="5" data-entry="0" data-section="1"><title>Entry 0 - Box 1 (remote)</title></rect>
<text class="section-label" x="610" y="110">REMOTE</text>
<text class="box-index" x="1070" y="110">[1]</text>
<text class="labela" x="610" y="140">device not active and muted. Saņemtais trafiks var tikt nodots primārajam. Primārā izvēlas vai pieņemt vai nē</text>
<text class="label" x="610" y="170">Role: secondary_mute</text>
<text class="label" x="610" y="200">Config: secondary</text>
<text class="label" x="610" y="230">TX: none</text>
<text class="label" x="610" y="260">RX: radio_port-alt_port</text>
<text class="label" x="610" y="290">Eth IP: 192.168.205.13</text>
<rect x="610" y="320" width="90" height="20" fill="purple" stroke="black" stroke-width="0.5"/>
<text class="label" x="615" y="335">LAN1</text>
<rect x="710" y="320" width="90" height="20" fill="#70ff70" stroke="black" stroke-width="0.5"/>
<text class="label" x="715" y="335">LAN2</text>
<rect x="810" y="320" width="90" height="20" fill="#ff7070" stroke="black" stroke-width="0.5"/>
<text class="label" x="815" y="335">LAN3</text>
<rect x="910" y="320" width="90" height="20" fill="#ff7070" stroke="black" stroke-width="0.5"/>
<text class="label" x="915" y="335">WAN</text>
<rect class="node" x="50" y="480" width="500" height="300" rx="5" ry="5" data-entry="0" data-section="2"><title>Entry 0 - Box 2 (alternate)</title></rect>
<text class="section-label" x="60" y="510">ALTERNATE</text>
<text class="box-index" x="520" y="510">[2]</text>
<text class="labela" x="60" y="540">State: Disabled</text>
<text class="label" x="60" y="570">Role: down</text>
<text class="label" x="60" y="600">Config: primary</text>
<text class="label" x="60" y="630">TX: unknown</text>
<text class="label" x="60" y="660">RX: unknown</text>
<text class="label" x="60" y="690">Eth IP: 192.168.205.10</text>
<rect x="60" y="720" width="90" height="20" fill="#ff7070" stroke="black" stroke-width="0.5"/>
<text class="label" x="65" y="735">LAN1</text>
<rect x="160" y="720" width="90" height="20" fill="#ff7070" stroke="black" stroke-width="0.5"/>
<text class="label" x="165" y="735">LAN2</text>
<rect x="260" y="720" width="90" height="20" fill="purple" stroke="black" stroke-width="0.5"/>
<text class="label" x="265" y="735">LAN3</text>
<rect x="360" y="720" width="90" height="20" fill="#ff7070" stroke="black" stroke-width="0.5"/>
<text class="label" x="365" y="735">WAN</text>
<rect class="node" x="600" y="480" width="500" height="300" rx="5" ry="5" data-entry="0" data-section="3"><title>Entry 0 - Box 3 (remote_alternate)</title></rect>
<text class="section-label" x="610" y="510">REMOTE_ALTERNATE</text>
<text class="box-index" x="1070" y="510">[3]</text>
<text class="labela" x="610" y="540">device active. Var sūtīt, bet uzņem tikai caur sekundāro.</text>
<text class="label" x="610" y="570">Role: primary_wanalt</text>
<text class="label" x="610" y="600">Config: primary</text>
<text class="label" x="610" y="630">TX: primary</text>
<text class="label" x="610" y="660">RX: secondary</text>
<text class="label" x="610" y="690">Eth IP: 192.168.205.11</text>
<rect x="610" y="720" width="90" height="20" fill="purple" stroke="black" stroke-width="0.5"/>
<text class="label" x="615" y="735">LAN1</text>
<rect x="710" y="720" width="90" height="20" fill="#70ff70" stroke="black" stroke-width="0.5"/>
<text class="label" x="715" y="735">LAN2</text>
<rect x="810" y="720" width="90" height="20" fill="#ff7070" stroke="black" stroke-width="0.5"/>
<text class="label" x="815" y="735">LAN3</text>
<rect x="910" y="720" width="90" height="20" fill="#ff7070" stroke="black" stroke-width="0.5"/>
<text class="label" x="915" y="735">WAN</text>
<line x1="300.0" y1="230.0" x2="850.0" y2="630.0" class="sender-receiver-line" marker-end="url(#arrowhead)"/>
</svg>